<svg data-v-4f28e988="" xmlns="http://www.w3.org/2000/svg" xmlns:xlink="http://www.w3.org/1999/xlink" fill="none" version="1.1" width="14" height="14.538461685180664" viewBox="0 0 14 14.538461685180664"><defs data-v-4f28e988=""><clipPath data-v-4f28e988="" id="master_svg0_18_3965"><rect data-v-4f28e988="" x="0" y="0" width="14" height="14.538461685180664" rx="0"></rect></clipPath></defs><g data-v-4f28e988="" clip-path="url(#master_svg0_18_3965)" fill="none"><g data-v-4f28e988="" fill="none"><path data-v-4f28e988="" d="M10.521225000000001,12.3871296875C10.452345000000001,12.4628296875,10.386295,12.5322296875,10.324335,12.5947296875C10.391275,12.5250296875,10.456855000000001,12.4558296875,10.521225000000001,12.3871296875C11.545315,11.2603196875,13.201985,8.6986896875,11.537915,5.6746196875C11.118715,4.9477396875,9.343454999999999,3.5302496875,7.5343350000000004,4.0347896875C6.767915,4.0994896875,5.201117,4.8650296875,5.0651399999999995,7.4095996875C4.399223,6.2344496875,4.043888,3.5372696875000003,7.078055,2.3664016875C8.586485,1.7842986875,12.155685,2.6299126875,13.157725,5.1487896875C13.722235,6.5679996875,13.849445,8.8314396875,10.521225000000001,12.3871296875Z" fill="#2E83FB" fill-opacity="1"></path></g><g data-v-4f28e988="" fill="none"><path data-v-4f28e988="" d="M1.596442109375,11.149918701171874C1.529475109375,11.104638701171876,1.467207409375,11.060618701171876,1.409912109375,11.018438701171874C1.472501709375,11.063008701171874,1.534681109375,11.106858701171875,1.596442109375,11.149918701171874C2.846582109375,11.994818701171875,5.737342109375,13.276108701171875,8.586892109375,11.217448701171875C9.260502109375,10.710028701171876,10.376882109375,8.847918701171874,9.628842109375,7.144958701171875C9.461492109375,6.403638701171875,8.483902109375,4.972716701171875,5.911722109375,5.179543701171875C7.002272109375,4.370951701171875,9.661992109375,3.662968701171875,11.242462109375,6.475618701171875C12.028112109375,7.873958701171874,11.656212109375,11.479538701171876,9.261872109375,12.796498701171876C7.907412109375,13.541458701171875,5.639942109375,13.968708701171876,1.596442109375,11.149918701171874Z" fill="#2E83FB" fill-opacity="1"></path></g><g data-v-4f28e988="" fill="none"><path data-v-4f28e988="" d="M3.328758203125,1.43866787890625C3.439858203125,1.31567087890625,3.545428203125,1.20617947890625,3.641008203125,1.11090087890625C3.533608203125,1.22136887890625,3.429558203125,1.33062187890625,3.328758203125,1.43866787890625C2.290068203125,2.58845087890625,0.765628203125,4.91831087890625,2.351848203125,7.84360087890625C2.766568203125,8.57300087890625,4.565568203125,10.18113087890625,6.377798203125,9.68762087890625C7.144588203125,9.62756087890625,8.716158203125,8.871470878906251,8.867908203125,6.32778087890625C9.526468203125,7.50693087890625,9.865118203125,10.20623087890625,6.823708203125,11.35870087890625C5.311658203125,11.93170087890625,1.747778203125,11.06448087890625,0.761441203125,8.539550878906251C0.21209920312500002,7.13330087890625,0.09520920312499997,4.90467087890625,3.328758203125,1.43866787890625Z" fill="#2E83FB" fill-opacity="1"></path></g><g data-v-4f28e988="" fill="none"><path data-v-4f28e988="" d="M12.709551953125,4.310746494140625C12.808251953125,4.407076494140625,12.896851953125,4.498506494140625,12.974851953125,4.582366494140625C12.885651953125,4.489496494140624,12.797151953125,4.398966494140625,12.709551953125,4.310746494140625C11.605341953125,3.233176494140625,9.232501953125,1.543162494140625,6.149701953125,2.993306494140625C5.392321953125,3.368106494140625,3.755451953125,5.068296494140625,4.169691953125,6.878886494140625C4.194431953125,7.637996494140625,4.885491953124999,9.223456494140626,7.451701953125,9.492616494140625C6.227881953124999,10.086866494140626,3.481231953125,10.294066494140624,2.458154953125,7.240216494140625C1.949520953125,5.721976494140625,2.994201953125,2.2476364941406253,5.594841953125,1.393383494140625C7.050711953125,0.915170494140625,9.326561953125001,0.9068794941406251,12.709551953125,4.310746494140625Z" fill="#2E83FB" fill-opacity="1"></path></g></g></svg>