<svg xmlns:xlink="http://www.w3.org/1999/xlink" data-v-3bba39cb="" width="117" height="117" viewBox="0 0 1420 1468" fill="none" xmlns="http://www.w3.org/2000/svg"><path data-v-3bba39cb="" d="M891.5 219C840.3 130.2 797.5 182 782.5 219C732.9 161.4 699.5 226.333 689 266L708.5 1177C918.9 1475.8 1172 1475.5 1298.5 1463.5C1380.5 1448.5 1355 1414.67 1335.5 1383.5C1257.5 1238.83 1098.8 925.3 1088 828.5C1077.2 731.7 1140.5 652.5 1168 616.5C1195.5 580.5 1216.4 511.3 1176 486.5C1135.6 461.7 1086.37 477 1074.5 499.5C1057 532.667 1018.5 597.4 1004.5 591C990.5 584.6 998.667 371.667 1004.5 266C1001.7 178.8 928 198.333 891.5 219Z" fill="#C162FB"></path> <path data-v-3bba39cb="" d="M357.5 861.499C365.9 940.299 192 1223.33 104 1355C59.9192 1423 97.4999 1434.68 132.5 1443C349.7 1494.6 567.667 1349.16 649.5 1270C702.167 1212.16 813.7 1038.6 838.5 806.998C863.3 575.398 848.834 384.831 838.5 318.498C829.232 258.998 785.667 257.331 758 258.998V222.998C751.6 156.998 671.5 171.5 653 202C599 138 554.667 170.165 541 201.998C458.2 168.798 432.5 215.832 430 243.498C433.334 355.498 438 576.899 430 566.499C422 556.099 407.5 507.498 391 488.999C374 475.998 349.7 468.199 318.5 488.999C287.3 509.799 288.5 549.332 293 566.499C312 601.998 347 762.999 357.5 861.499Z" fill="#5199FF"></path> <path data-v-3bba39cb="" d="M238 15.5L291 92.5" stroke="#B63FFF" stroke-width="30px" stroke-linecap="round" fill="none"></path> <path data-v-3bba39cb="" d="M1219.92 26L1145.41 82.4493" stroke="#2E83FB" stroke-width="30px" stroke-linecap="round" fill="none"></path> <path data-v-3bba39cb="" d="M1219.92 26L1145.41 82.4493" stroke="#2E83FB" stroke-width="30px" stroke-linecap="round" fill="none"></path> <path data-v-3bba39cb="" d="M1219.92 26L1145.41 82.4493" stroke="#2E83FB" stroke-width="30px" stroke-linecap="round" fill="none"></path> <path data-v-3bba39cb="" d="M1339.63 178.233L1251 207.945" stroke="#2E83FB" stroke-width="30px" stroke-linecap="round" fill="none"></path> <path data-v-3bba39cb="" d="M1339.63 178.233L1251 207.945" stroke="#2E83FB" stroke-width="30px" stroke-linecap="round" fill="none"></path> <path data-v-3bba39cb="" d="M1339.63 178.233L1251 207.945" stroke="#2E83FB" stroke-width="30px" stroke-linecap="round" fill="none"></path> <path data-v-3bba39cb="" d="M1404.43 501.611L1311 504.594" stroke="#2E83FB" stroke-width="30px" stroke-linecap="round" fill="none"></path> <path data-v-3bba39cb="" d="M1404.43 501.611L1311 504.594" stroke="#2E83FB" stroke-width="30px" stroke-linecap="round" fill="none"></path> <path data-v-3bba39cb="" d="M1404.43 501.611L1311 504.594" stroke="#2E83FB" stroke-width="30px" stroke-linecap="round" fill="none"></path> <path data-v-3bba39cb="" d="M1347.43 803.571L1264 761.414" stroke="#2E83FB" stroke-width="30px" stroke-linecap="round" fill="none"></path> <path data-v-3bba39cb="" d="M1347.43 803.571L1264 761.414" stroke="#2E83FB" stroke-width="30px" stroke-linecap="round" fill="none"></path> <path data-v-3bba39cb="" d="M1347.43 803.571L1264 761.414" stroke="#2E83FB" stroke-width="30px" stroke-linecap="round" fill="none"></path> <path data-v-3bba39cb="" d="M84 252.761L165.896 297.828" stroke="#B63FFF" stroke-width="30px" stroke-linecap="round" fill="none"></path> <path data-v-3bba39cb="" d="M15.9443 498.037L107.951 514.551" stroke="#B63FFF" stroke-width="30px" stroke-linecap="round" fill="none"></path> <path data-v-3bba39cb="" d="M66 723.992L156.231 699.572" stroke="#B63FFF" stroke-width="30px" stroke-linecap="round" fill="none"></path> <path data-v-3bba39cb="" d="M128.549 865.642L202.911 809" stroke="#B63FFF" stroke-width="30px" stroke-linecap="round" fill="none"></path> <path data-v-3bba39cb="" d="M433.999 577C418 601.5 364.666 827.499 374.999 843.999" stroke="#C162FB" stroke-width="30px" stroke-linecap="round" fill="none"></path> <path data-v-3bba39cb="" d="M539 215C539 230.6 532.333 437.833 529 539.5" stroke="#C162FB" stroke-width="30px" stroke-linecap="round" fill="none"></path> <path data-v-3bba39cb="" d="M646.5 214C630.9 247.6 627 430.333 627 517.5" stroke="#C162FB" stroke-width="30px" stroke-linecap="round" fill="none"></path> <path data-v-3bba39cb="" d="M812 255.437C800.907 249.07 774.248 240.157 756.36 255.437C738.472 270.717 734 436.179 734 517" stroke="#C162FB" stroke-width="30px" stroke-linecap="round" fill="none"></path> <path data-v-3bba39cb="" d="M793.601 225C784.478 245.162 783.5 230.332 783.5 248" stroke="#871BC9" stroke-width="30px" stroke-linecap="round" fill="none"></path> <path data-v-3bba39cb="" d="M889.289 235C863.289 259.8 866.456 451 871.289 543.5" stroke="#871BC9" stroke-width="30px" stroke-linecap="round" fill="none"></path> <path data-v-3bba39cb="" d="M1020.5 594C982.9 631.6 940.167 703.667 923.5 735" stroke="#871BC9" stroke-width="30px" stroke-linecap="round" fill="none"></path></svg>