<svg data-v-3bba39cb="" xmlns="http://www.w3.org/2000/svg" xmlns:xlink="http://www.w3.org/1999/xlink" fill="none" version="1.1" width="16" height="16" viewBox="0 0 16 15.624000549316406" class="ng-toolbar-copy"><defs data-v-3bba39cb=""><clipPath data-v-3bba39cb="" id="master_svg0_38_550"><rect data-v-3bba39cb="" x="0" y="0" width="16" height="15.624000549316406" rx="0"></rect></clipPath></defs> <g data-v-3bba39cb="" clip-path="url(#master_svg0_38_550)" fill="none"><g data-v-3bba39cb="" fill="none"><g data-v-3bba39cb="" fill="none"><path data-v-3bba39cb="" d="M4.2036759201431275,11.615755705070496L2.4063059201431276,11.615755705070496C1.7120749201431273,11.615755705070496,1.1475362062451275,11.051255705070496,1.1475362062451275,10.357005705070495L1.1475362062451275,2.2978257050704958C1.1475362062451275,1.6035947050704955,1.7120749201431273,1.0390557050704956,2.4063059201431276,1.0390557050704956L9.865855920143128,1.0390557050704956C10.560085920143127,1.0390557050704956,11.124615920143128,1.6035947050704955,11.124615920143128,2.2978257050704958L11.124615920143128,3.3673957050704955C11.124615920143128,3.5352357050704954,10.987295920143128,3.672555705070496,10.819465920143127,3.672555705070496C10.651625920143127,3.672555705070496,10.514305920143128,3.5352357050704954,10.514305920143128,3.3673957050704955L10.514305920143128,2.2978257050704958C10.514305920143128,1.9407927050704956,10.224405920143127,1.6493677050704956,9.865855920143128,1.6493677050704956L2.4063059201431276,1.6493677050704956C2.0492729201431272,1.6493677050704956,1.7578489201431275,1.9392667050704957,1.7578489201431275,2.2978257050704958L1.7578489201431275,10.358525705070496C1.7578489201431275,10.715565705070496,2.0477469201431275,11.006985705070496,2.4063059201431276,11.006985705070496L4.2036759201431275,11.006985705070496C4.3715159201431275,11.006985705070496,4.508835920143127,11.144355705070495,4.508835920143127,11.312155705070495C4.508835920143127,11.479955705070495,4.373035920143128,11.615755705070496,4.2036759201431275,11.615755705070496Z" fill="#212427" fill-opacity="0.6"></path></g><g data-v-3bba39cb="" fill="none"><path data-v-3bba39cb="" d="M13.877388107643128,14.816890031242371L6.304928107643128,14.816890031242371C5.6564741076431275,14.816890031242371,5.127028107643127,14.288930031242371,5.127028107643127,13.63895003124237L5.127028107643127,5.468390031242371C5.127028107643127,4.819936031242371,5.654948107643127,4.290490031242371,6.304928107643128,4.290490031242371L13.878908107643127,4.290490031242371C14.527368107643127,4.290490031242371,15.056818107643128,4.8184100312423706,15.056818107643128,5.468390031242371L15.056818107643128,13.64048003124237C15.055288107643127,14.28894003124237,14.527368107643127,14.816890031242371,13.877388107643128,14.816890031242371ZM6.304928107643128,4.90080303124237C5.992146107643127,4.90080303124237,5.737340107643128,5.15560803124237,5.737340107643128,5.468390031242371L5.737340107643128,13.64048003124237C5.737340107643128,13.95326003124237,5.992146107643127,14.20807003124237,6.304928107643128,14.20807003124237L13.878908107643127,14.20807003124237C14.191698107643127,14.20807003124237,14.446498107643128,13.95326003124237,14.446498107643128,13.64048003124237L14.446498107643128,5.468390031242371C14.446498107643128,5.15560803124237,14.191698107643127,4.900802031242371,13.878908107643127,4.900802031242371L6.304928107643128,4.90080303124237Z" fill="#212427" fill-opacity="0.6"></path></g></g></g></svg>