<svg xmlns:xlink="http://www.w3.org/1999/xlink" xmlns="http://www.w3.org/2000/svg" width="28" height="28" viewBox="0 0 28 28" fill="none"><path d="M3.5 7C3.5 6.76794 3.59219 6.54538 3.75628 6.38128C3.92038 6.21719 4.14294 6.125 4.375 6.125H23.625C23.8571 6.125 24.0796 6.21719 24.2437 6.38128C24.4078 6.54538 24.5 6.76794 24.5 7C24.5 7.23206 24.4078 7.45462 24.2437 7.61872C24.0796 7.78281 23.8571 7.875 23.625 7.875H4.375C4.14294 7.875 3.92038 7.78281 3.75628 7.61872C3.59219 7.45462 3.5 7.23206 3.5 7ZM14.875 13.125H4.375C4.14294 13.125 3.92038 13.2172 3.75628 13.3813C3.59219 13.5454 3.5 13.7679 3.5 14C3.5 14.2321 3.59219 14.4546 3.75628 14.6187C3.92038 14.7828 4.14294 14.875 4.375 14.875H14.875C15.1071 14.875 15.3296 14.7828 15.4937 14.6187C15.6578 14.4546 15.75 14.2321 15.75 14C15.75 13.7679 15.6578 13.5454 15.4937 13.3813C15.3296 13.2172 15.1071 13.125 14.875 13.125ZM14.875 20.125H4.375C4.14294 20.125 3.92038 20.2172 3.75628 20.3813C3.59219 20.5454 3.5 20.7679 3.5 21C3.5 21.2321 3.59219 21.4546 3.75628 21.6187C3.92038 21.7828 4.14294 21.875 4.375 21.875H14.875C15.1071 21.875 15.3296 21.7828 15.4937 21.6187C15.6578 21.4546 15.75 21.2321 15.75 21C15.75 20.7679 15.6578 20.5454 15.4937 20.3813C15.3296 20.2172 15.1071 20.125 14.875 20.125ZM26.7138 16.7584L19.7138 12.3834C19.5813 12.3007 19.4292 12.2549 19.2731 12.2507C19.117 12.2466 18.9626 12.2844 18.826 12.36C18.6894 12.4357 18.5756 12.5465 18.4963 12.681C18.4169 12.8156 18.3751 12.9688 18.375 13.125V21.875C18.3751 22.0312 18.4169 22.1844 18.4963 22.319C18.5756 22.4535 18.6894 22.5643 18.826 22.64C18.9626 22.7156 19.117 22.7534 19.2731 22.7493C19.4292 22.7451 19.5813 22.6993 19.7138 22.6166L26.7138 18.2416C26.8394 18.1629 26.943 18.0535 27.0148 17.9238C27.0866 17.7941 27.1243 17.6483 27.1243 17.5C27.1243 17.3517 27.0866 17.2059 27.0148 17.0762C26.943 16.9465 26.8394 16.8371 26.7138 16.7584Z" fill="#FFFFFF"></path></svg>