<svg data-v-3bba39cb="" xmlns="http://www.w3.org/2000/svg" xmlns:xlink="http://www.w3.org/1999/xlink" fill="none" version="1.1" width="16" height="16" viewBox="0 0 16 16" class="ng-feedback"><defs data-v-3bba39cb=""><clipPath data-v-3bba39cb="" id="master_svg0_38_548"><rect data-v-3bba39cb="" x="0" y="0" width="16" height="16" rx="0"></rect></clipPath></defs> <g data-v-3bba39cb="" clip-path="url(#master_svg0_38_548)" fill="none"><g data-v-3bba39cb="" fill="none"><path data-v-3bba39cb="" d="M13.8,1.3000030517578125L2.2,1.3000030517578125C1.4,1.3000030517578125,0.75,1.9500030517578124,0.75,2.7000030517578124L0.75,11.800003051757812C0.75,12.550003051757812,1.4,13.200003051757813,2.2,13.200003051757813L6.2,13.200003051757813Q6.3,13.300003051757812,6.45,13.500003051757812C6.5,13.550003051757812,6.55,13.600003051757813,6.6,13.700003051757813Q6.7,13.850003051757813,6.75,13.900003051757812C7.2,14.600003051757813,7.55,14.950003051757813,8.1,14.950003051757813C8.65,14.950003051757813,9.05,14.600003051757813,9.5,13.900003051757812Q9.85,13.350003051757813,9.95,13.200003051757813L13.85,13.200003051757813C14.65,13.200003051757813,15.3,12.550003051757812,15.3,11.800003051757812L15.3,2.7000030517578124C15.25,1.9000030517578126,14.6,1.3000030517578125,13.8,1.3000030517578125ZM14.55,11.800003051757812C14.55,12.200003051757813,14.25,12.500003051757812,13.85,12.500003051757812L9.9,12.500003051757812C9.8,12.500003051757812,9.75,12.500003051757812,9.65,12.550003051757812C9.5,12.650003051757812,9.35,12.750003051757812,9.2,13.000003051757812Q9.15,13.100003051757813,8.85,13.550003051757812C8.55,14.050003051757812,8.3,14.250003051757812,8.1,14.250003051757812C7.9,14.250003051757812,7.7,14.050003051757812,7.35,13.550003051757812C7.3,13.500003051757812,7.25,13.350003051757813,7.2,13.350003051757813C7.15,13.250003051757812,7.1,13.200003051757813,7.05,13.150003051757812C6.75,12.750003051757812,6.55,12.550003051757812,6.2,12.550003051757812L2.2,12.550003051757812C1.8,12.550003051757812,1.5,12.250003051757812,1.5,11.850003051757813L1.5,2.7500030517578127C1.5,2.3500030517578123,1.85,2.0500030517578125,2.25,2.0500030517578125L13.85,2.0500030517578125C14.25,2.0500030517578125,14.6,2.3500030517578123,14.6,2.7500030517578127L14.6,11.800003051757812L14.55,11.800003051757812ZM3.45,7.5500030517578125C3.45,7.991833051757813,3.80817,8.350003051757813,4.25,8.350003051757813C4.6918299999999995,8.350003051757813,5.05,7.991833051757813,5.05,7.5500030517578125C5.05,7.108173051757812,4.6918299999999995,6.750003051757813,4.25,6.750003051757813C3.80817,6.750003051757813,3.45,7.108173051757812,3.45,7.5500030517578125ZM7.2,7.5500030517578125C7.2,7.991833051757813,7.55817,8.350003051757813,8,8.350003051757813C8.44183,8.350003051757813,8.8,7.991833051757813,8.8,7.5500030517578125C8.8,7.108173051757812,8.44183,6.750003051757813,8,6.750003051757813C7.55817,6.750003051757813,7.2,7.108173051757812,7.2,7.5500030517578125ZM10.9,7.5500030517578125C10.9,7.991833051757813,11.2582,8.350003051757813,11.7,8.350003051757813C12.1418,8.350003051757813,12.5,7.991833051757813,12.5,7.5500030517578125C12.5,7.108173051757812,12.1418,6.750003051757813,11.7,6.750003051757813C11.2582,6.750003051757813,10.9,7.108173051757812,10.9,7.5500030517578125Z" fill="#212427" fill-opacity="0.5"></path></g></g></svg>