<svg data-v-3bba39cb="" xmlns="http://www.w3.org/2000/svg" xmlns:xlink="http://www.w3.org/1999/xlink" fill="none" version="1.1" width="13.879655838012695" height="14" viewBox="0 0 13.879655838012695 14"><defs data-v-3bba39cb=""><clipPath data-v-3bba39cb="" id="master_svg0_18_3518"><rect data-v-3bba39cb="" x="0" y="0" width="13.879655838012695" height="14" rx="0"></rect></clipPath></defs><g data-v-3bba39cb="" clip-path="url(#master_svg0_18_3518)" style="opacity: 0.5;" fill="none"><g data-v-3bba39cb="" fill="none"><path data-v-3bba39cb="" d="M7.6211575,6.98357740234375L11.6196475,2.97133940234375C11.8087275,2.7815994023437502,11.8096875,2.47413040234375,11.6215775,2.28341140234375C11.4329775,2.09221710234375,11.1286375,2.09172730234375,10.9395575,2.28146640234375L6.9400975,6.29419740234375L2.9753735,2.28293540234375C2.7877505,2.09319640234375,2.4824384999999998,2.09221710234375,2.2933595,2.28195640234375C2.1047653,2.47169640234375,2.1042937,2.77965540234375,2.2923885,2.97037340234375L6.2561775,6.98066740234375L2.2595985,10.99047740234375C2.0705198,11.18021740234375,2.0695626,11.48768740234375,2.2576705,11.67840740234375C2.3517255,11.77376740234375,2.4756835,11.82191740234375,2.5996425,11.82191740234375C2.7226295,11.82191740234375,2.8456305,11.77472740234375,2.9396855,11.68034740234375L6.9372175,7.66956740234375L10.9381175,11.71732740234375C11.0321775,11.81268740234375,11.1556475,11.86036740234375,11.2796075,11.86036740234375C11.4030775,11.86036740234375,11.5260775,11.81268740234375,11.6201375,11.71830740234375C11.8087275,11.52856740234375,11.8092075,11.22109740234375,11.6211075,11.03037740234375L7.6211575,6.98357740234375Z" fill="#212427" fill-opacity="0.501961"></path></g></g></svg>