<svg data-v-4f28e988="" xmlns="http://www.w3.org/2000/svg" xmlns:xlink="http://www.w3.org/1999/xlink" fill="none" version="1.1" width="9.47799301147461" height="8.845172882080078" viewBox="0 0 9.47799301147461 8.845172882080078" class="el-popover__reference" aria-describedby="el-popover-1273" tabindex="0" style="margin-left: 6px; margin-top: -2px; cursor: pointer;"><g data-v-4f28e988="" fill="none"><path data-v-4f28e988="" d="M7.15728,0.0318839C7.0589,-0.0265303,6.93245,-0.00274923,6.86201,0.0874102C6.75981,0.218842,6.64525,0.340186,6.51991,0.449779C6.42633,0.531264,6.41801,0.673755,6.50149,0.765568C6.5181,0.784022,6.53767,0.799585,6.55938,0.811621C8.61751,1.95253,9.13179,4.68327,7.62968,6.49468C6.12757,8.30609,3.34883,8.30609,1.84672,6.49468C0.344606,4.68326,0.85889,1.95253,2.91702,0.811621C3.0254,0.752131,3.06413,0.615444,3.00307,0.507937C2.99068,0.48647,2.97485,0.467179,2.95623,0.450831C2.83107,0.340856,2.71653,0.219357,2.61412,0.0879366C2.5438,-0.00205509,2.41753,-0.0257295,2.31938,0.0326734C-0.200255,1.5291,-0.771111,4.9309,1.12203,7.16783C3.01518,9.40476,6.46454,9.4042,8.35696,7.16665C10.2494,4.9291,9.6774,1.52748,7.15728,0.0318839ZM4.47307,5.08136L5.00412,5.08136C5.1279,5.08209,5.2288,4.98225,5.22938,4.85846L5.22938,0.223989C5.2288,0.100203,5.1279,0.000365824,5.00412,0.00109449L4.47307,0.00109449C4.34924,0.000365824,4.24827,0.10016,4.24754,0.223989L4.24754,4.85952C4.24827,4.98324,4.34908,5.08299,4.4728,5.08241L4.47307,5.08136Z" fill="#A5A5A5" fill-opacity="1"></path></g></svg>