<svg data-v-3bba39cb="" xmlns="http://www.w3.org/2000/svg" xmlns:xlink="http://www.w3.org/1999/xlink" fill="none" version="1.1" width="16" height="16" viewBox="0 0 16 16" class="ng-toolbar-refresh"><defs data-v-3bba39cb=""><clipPath data-v-3bba39cb="" id="master_svg0_38_554"><rect data-v-3bba39cb="" x="0" y="0" width="16" height="16" rx="0"></rect></clipPath></defs> <g data-v-3bba39cb="" clip-path="url(#master_svg0_38_554)" fill="none"><g data-v-3bba39cb="" fill="none"><g data-v-3bba39cb="" fill="none"><path data-v-3bba39cb="" d="M7.956255,15.659392952823639C6.993755,15.659392952823639,6.060935,15.47029295282364,5.181255,15.09839295282364C4.332815,14.739092952823638,3.570315,14.224992952823639,2.915625,13.570292952823639C2.260935,12.915592952823639,1.746875,12.15309295282364,1.3875,11.30469295282364C1.017188,10.42656295282364,0.828125,9.49219295282364,0.828125,8.529692952823638C0.828125,7.259372952823639,1.167188,6.012502952823639,1.80625,4.923442952823638C2.428125,3.867192952823639,3.315625,2.981252952823639,4.375005,2.365625952823639C4.523435,2.278125952823639,4.715625,2.329687952823639,4.801565,2.478125952823639C4.889065,2.626562952823639,4.837505,2.818752952823639,4.689064999999999,2.904692952823639C2.693755,4.067192952823639,1.453125,6.223442952823639,1.453125,8.529692952823638C1.453125,12.115592952823638,4.370315,15.03279295282364,7.956255,15.03279295282364C11.542225,15.03279295282364,14.459425,12.115592952823638,14.459425,8.529692952823638C14.459425,5.323442952823639,12.167225,2.625002952823639,9.007815,2.110937952823639C8.837505,2.0828129528236388,8.721875,1.923437952823639,8.750005,1.751562952823639C8.778125,1.579688252823639,8.937505,1.465625752823639,9.109375,1.4937507228236389C10.760935,1.7625009528236388,12.273425,2.6125029528236388,13.368725,3.889062952823639C13.910925,4.521872952823639,14.335925,5.235942952823638,14.628125,6.012502952823639C14.931225,6.815622952823639,15.085925,7.662502952823639,15.085925,8.529692952823638C15.085925,9.49219295282364,14.896925,10.42500295282364,14.525025,11.30469295282364C14.165625,12.15309295282364,13.651525,12.915592952823639,12.996825,13.570292952823639C12.342225,14.224992952823639,11.579725,14.739092952823638,10.731245,15.09839295282364C9.853125,15.47029295282364,8.918745,15.659392952823639,7.956255,15.659392952823639Z" fill="#212427" fill-opacity="0.6"></path></g><g data-v-3bba39cb="" fill="none"><path data-v-3bba39cb="" d="M9.9300578125,0.4640698559095764L7.3081798125,1.1046951159095764C7.1800544725,1.1359451159095764,7.1331795125,1.2953201159095764,7.2238045125,1.3906321159095762L9.1253678125,3.3812601159095763C9.2175578125,3.4781301159095763,9.3800578125,3.4375101159095762,9.4159878125,3.3078201159095766L10.1363078125,0.6765701159095764C10.1706778125,0.5500073159095764,10.0566178125,0.4328198159095764,9.9300578125,0.4640698559095764Z" fill="#212427" fill-opacity="0.6"></path></g></g></g></svg>